<?xml version="1.0" standalone="no"?>
<!DOCTYPE svg PUBLIC "-//W3C//DTD SVG 20010904//EN"
 "http://www.w3.org/TR/2001/REC-SVG-20010904/DTD/svg10.dtd">
<svg version="1.0" xmlns="http://www.w3.org/2000/svg"
 width="400.000000pt" height="140.000000pt" viewBox="0 0 400.000000 140.000000"
 preserveAspectRatio="xMidYMid meet">

<g transform="translate(0.000000,140.000000) scale(0.100000,-0.100000)"
fill="#000000" stroke="none">
<path d="M376 1380 c-35 -11 -63 -36 -84 -75 -14 -25 -16 -66 -17 -235 0 -193
-1 -208 -22 -247 -29 -53 -73 -84 -129 -91 -28 -3 -48 -11 -54 -22 -12 -23 -4
-30 35 -30 49 0 118 -50 145 -104 29 -62 37 -136 28 -276 -14 -237 14 -280
185 -280 82 0 97 6 97 36 0 2 -40 4 -90 4 -84 0 -92 2 -120 28 -42 37 -50 81
-40 226 14 199 -13 309 -90 365 l-37 27 39 38 c75 71 83 103 83 333 1 222 6
244 58 263 16 5 65 10 107 10 59 0 79 4 83 15 4 8 3 16 -1 18 -15 8 -149 5
-176 -3z"/>
<path d="M3446 1381 c-13 -20 17 -29 101 -32 84 -4 95 -6 119 -31 l27 -26 1
-209 c1 -237 9 -268 84 -339 l39 -38 -37 -27 c-77 -56 -105 -161 -91 -351 11
-157 3 -203 -38 -240 -29 -26 -37 -28 -122 -28 -79 0 -90 -2 -85 -16 3 -9 6
-18 6 -20 0 -2 39 -4 86 -4 103 0 145 16 168 65 18 38 21 79 17 275 -1 74 2
150 8 169 26 86 101 151 171 151 27 0 31 3 28 23 -2 18 -11 23 -48 27 -57 7
-104 40 -133 93 -21 39 -22 55 -22 248 -1 185 -3 209 -20 239 -36 61 -66 75
-166 77 -49 1 -91 -2 -93 -6z"/>
<path d="M2552 1068 c-28 -28 -7 -78 33 -78 27 0 45 18 45 45 0 27 -18 45 -45
45 -12 0 -26 -5 -33 -12z"/>
<path d="M2320 1054 c-64 -23 -90 -57 -90 -119 0 -33 -2 -35 -35 -35 -31 0
-35 -3 -35 -25 0 -22 4 -25 35 -25 l35 0 0 -120 0 -120 40 0 40 0 0 120 0 120
50 0 c47 0 50 2 50 25 0 23 -3 25 -50 25 l-50 0 0 34 c0 51 23 69 80 62 43 -6
48 -4 58 18 9 19 8 25 -3 30 -24 9 -109 16 -125 10z"/>
<path d="M2724 1035 c-12 -31 4 -45 50 -45 l45 0 3 -170 c3 -161 4 -171 26
-192 19 -19 33 -23 82 -23 67 1 82 10 69 42 -6 18 -16 22 -42 21 -19 -1 -39 2
-45 6 -9 5 -12 63 -12 192 l0 184 -85 0 c-67 0 -87 -3 -91 -15z"/>
<path d="M690 816 l0 -206 36 0 36 0 -3 160 c-2 88 -3 157 -1 152 1 -4 26 -75
55 -157 l54 -150 51 -3 52 -3 0 205 0 206 -36 0 -36 0 3 -159 4 -160 -43 122
c-75 215 -60 192 -120 195 l-52 3 0 -205z"/>
<path d="M1252 988 c3 -33 4 -33 61 -36 l57 -3 0 -169 0 -170 45 0 45 0 0 173
0 172 55 -3 c50 -4 55 -2 55 16 0 11 3 27 6 36 5 14 -13 16 -161 16 l-166 0 3
-32z"/>
<path d="M1638 915 c-56 -31 -87 -122 -68 -197 27 -102 126 -144 228 -98 39
18 42 21 30 40 -10 16 -19 20 -38 15 -68 -17 -85 -16 -113 5 -15 12 -27 30
-27 41 0 18 8 19 105 19 102 0 105 -1 105 -22 0 -58 71 -118 140 -118 87 0
144 65 144 164 -1 106 -53 166 -144 166 -72 0 -139 -55 -141 -117 0 -10 -8 2
-17 27 -23 58 -69 90 -131 90 -25 -1 -58 -7 -73 -15z m112 -55 c11 -11 20 -31
20 -45 0 -24 -3 -25 -60 -25 -56 0 -60 2 -60 23 0 56 62 85 100 47z m294 -12
c24 -35 22 -142 -4 -168 -11 -11 -29 -20 -40 -20 -40 0 -60 35 -60 103 0 75
18 107 60 107 18 0 34 -8 44 -22z"/>
<path d="M3093 910 c-45 -27 -66 -73 -67 -146 0 -99 57 -164 142 -164 89 0
146 65 146 164 -1 106 -53 166 -144 166 -27 0 -58 -8 -77 -20z m121 -62 c24
-35 22 -142 -4 -168 -11 -11 -29 -20 -40 -20 -40 0 -60 35 -60 103 0 75 18
107 60 107 18 0 34 -8 44 -22z"/>
<path d="M2470 896 c0 -22 5 -25 43 -28 l42 -3 3 -97 3 -98 -46 0 c-43 0 -45
-1 -45 -30 l0 -30 126 0 125 0 -3 28 c-3 23 -8 27 -40 30 l-38 3 0 125 0 124
-85 0 c-83 0 -85 0 -85 -24z"/>
<path d="M1074 694 c-37 -55 25 -117 80 -80 30 19 35 65 10 90 -25 25 -71 20
-90 -10z"/>
<path d="M1532 425 l-2 -81 34 -2 c26 -2 38 3 45 17 17 30 13 59 -9 81 -16 16
-25 18 -40 10 -16 -9 -19 -6 -23 22 -2 18 -5 -3 -5 -47z m63 -30 c0 -36 -2
-40 -25 -40 -20 0 -26 6 -28 28 -5 42 5 59 30 55 20 -3 23 -9 23 -43z"/>
<path d="M1810 474 c0 -20 -4 -24 -19 -19 -27 8 -51 -20 -51 -59 0 -41 15 -55
58 -54 l32 1 0 79 c0 45 -4 78 -10 78 -5 0 -10 -12 -10 -26z m-2 -76 c-2 -34
-7 -43 -22 -43 -26 0 -40 26 -32 58 5 20 13 27 32 27 23 0 25 -3 22 -42z"/>
<path d="M2182 493 c14 -3 18 -18 20 -76 l3 -72 30 -2 c28 -2 28 -1 5 5 -23 7
-25 13 -28 80 -3 67 -4 72 -25 71 -16 -1 -18 -3 -5 -6z"/>
<path d="M1294 473 c3 -10 8 -44 12 -75 8 -74 29 -77 39 -5 l8 52 10 -52 c13
-72 33 -68 41 8 4 33 10 68 13 77 4 10 2 14 -3 9 -5 -5 -14 -34 -20 -65 l-11
-57 -8 53 c-4 30 -13 52 -20 52 -7 0 -16 -22 -20 -52 l-8 -53 -10 63 c-5 34
-14 62 -19 62 -5 0 -7 -8 -4 -17z"/>
<path d="M1442 444 c-25 -17 -30 -72 -10 -92 14 -14 54 -16 62 -3 4 5 -3 7
-14 4 -20 -5 -50 12 -50 28 0 5 18 9 41 9 36 0 40 3 37 21 -2 12 -12 28 -23
35 -18 12 -24 11 -43 -2z m51 -18 c8 -19 -1 -26 -35 -26 -30 0 -31 1 -22 24 8
20 50 21 57 2z"/>
<path d="M1872 444 c-25 -17 -30 -72 -10 -92 14 -14 54 -16 62 -3 4 5 -3 7
-14 4 -20 -5 -50 12 -50 28 0 5 18 9 41 9 36 0 40 3 37 21 -2 12 -12 28 -23
35 -18 12 -24 11 -43 -2z m51 -18 c8 -19 -1 -26 -35 -26 -30 0 -31 1 -22 24 8
20 50 21 57 2z"/>
<path d="M2080 440 c-24 -24 -25 -48 -4 -78 15 -22 58 -30 68 -13 3 5 -9 8
-26 7 -23 -1 -33 4 -36 17 -3 14 4 17 32 17 32 0 36 3 36 25 0 14 -8 29 -19
35 -26 13 -28 13 -51 -10z m58 -22 c3 -14 -3 -18 -27 -18 -29 0 -41 17 -24 34
13 13 48 1 51 -16z"/>
<path d="M2310 452 c-22 -7 -30 -23 -30 -58 0 -36 16 -54 47 -54 26 0 45 31
41 67 -3 29 -35 54 -58 45z m43 -33 c13 -49 -40 -98 -57 -53 -8 21 -8 59 1 67
15 16 51 6 56 -14z"/>
<path d="M2420 450 c-8 -5 -18 -6 -22 -4 -4 3 -7 -30 -7 -73 1 -43 4 -66 6
-52 3 22 8 25 33 21 25 -4 31 0 40 24 20 51 -14 106 -50 84z m35 -55 c0 -36
-2 -40 -25 -40 -20 0 -26 6 -28 28 -5 42 5 59 30 55 20 -3 23 -9 23 -43z"/>
<path d="M2510 440 c-24 -24 -25 -48 -4 -78 15 -22 58 -30 68 -13 3 5 -9 8
-26 7 -23 -1 -33 4 -36 17 -3 14 4 17 32 17 32 0 36 3 36 25 0 14 -8 29 -19
35 -26 13 -28 13 -51 -10z m58 -22 c3 -14 -3 -18 -27 -18 -29 0 -41 17 -24 34
13 13 48 1 51 -16z"/>
<path d="M2660 450 c-8 -5 -22 -7 -30 -5 -12 4 -15 -6 -15 -50 0 -52 1 -55 25
-54 14 0 19 3 13 6 -14 5 -17 50 -7 77 7 19 30 21 37 4 3 -7 6 -3 6 10 1 24
-6 27 -29 12z"/>
<path d="M1973 395 c11 -30 24 -55 28 -55 5 0 9 2 9 5 0 2 9 27 20 55 11 27
16 50 11 50 -4 0 -13 -18 -20 -40 -6 -22 -15 -40 -20 -40 -4 0 -14 18 -21 40
-7 22 -16 40 -20 40 -4 0 1 -25 13 -55z"/>
</g>
</svg>
